<mxfile host="app.diagrams.net" modified="2023-12-27T06:31:32.957Z" agent="Mozilla/5.0 (Windows NT 10.0; Win64; x64) AppleWebKit/537.36 (KHTML, like Gecko) Chrome/120.0.0.0 Safari/537.36 Edg/120.0.0.0" etag="iRfXChQt20MgWE9XaE1N" version="22.1.12" type="github">
  <diagram name="第 1 页" id="M_EZTRQuUt1dSx06D3aZ">
    <mxGraphModel dx="1042" dy="535" grid="1" gridSize="10" guides="1" tooltips="1" connect="1" arrows="1" fold="1" page="1" pageScale="1" pageWidth="827" pageHeight="1169" math="0" shadow="0">
      <root>
        <mxCell id="0" />
        <mxCell id="1" parent="0" />
        <mxCell id="_Uml3uSyplb_F6m0WPEB-3" value="" style="edgeStyle=orthogonalEdgeStyle;rounded=0;orthogonalLoop=1;jettySize=auto;html=1;" edge="1" parent="1" source="_Uml3uSyplb_F6m0WPEB-1" target="_Uml3uSyplb_F6m0WPEB-2">
          <mxGeometry relative="1" as="geometry" />
        </mxCell>
        <mxCell id="_Uml3uSyplb_F6m0WPEB-1" value="收到锁端配网" style="rounded=1;whiteSpace=wrap;html=1;" vertex="1" parent="1">
          <mxGeometry x="30" y="60" width="120" height="60" as="geometry" />
        </mxCell>
        <mxCell id="_Uml3uSyplb_F6m0WPEB-5" value="" style="edgeStyle=orthogonalEdgeStyle;rounded=0;orthogonalLoop=1;jettySize=auto;html=1;" edge="1" parent="1" source="_Uml3uSyplb_F6m0WPEB-2" target="_Uml3uSyplb_F6m0WPEB-4">
          <mxGeometry relative="1" as="geometry" />
        </mxCell>
        <mxCell id="_Uml3uSyplb_F6m0WPEB-2" value="&lt;font&gt;设置工作模式为0&lt;br&gt;断开MQTT&lt;br&gt;配网唤醒DSP&lt;br&gt;&lt;/font&gt;" style="rounded=1;whiteSpace=wrap;html=1;" vertex="1" parent="1">
          <mxGeometry x="230" y="60" width="120" height="60" as="geometry" />
        </mxCell>
        <mxCell id="_Uml3uSyplb_F6m0WPEB-9" value="" style="edgeStyle=orthogonalEdgeStyle;rounded=0;orthogonalLoop=1;jettySize=auto;html=1;" edge="1" parent="1" source="_Uml3uSyplb_F6m0WPEB-4" target="_Uml3uSyplb_F6m0WPEB-8">
          <mxGeometry relative="1" as="geometry" />
        </mxCell>
        <mxCell id="_Uml3uSyplb_F6m0WPEB-4" value="打开蓝牙" style="rounded=1;whiteSpace=wrap;html=1;" vertex="1" parent="1">
          <mxGeometry x="430" y="60" width="120" height="60" as="geometry" />
        </mxCell>
        <mxCell id="_Uml3uSyplb_F6m0WPEB-11" value="" style="edgeStyle=orthogonalEdgeStyle;rounded=0;orthogonalLoop=1;jettySize=auto;html=1;" edge="1" parent="1" source="_Uml3uSyplb_F6m0WPEB-8" target="_Uml3uSyplb_F6m0WPEB-10">
          <mxGeometry relative="1" as="geometry" />
        </mxCell>
        <mxCell id="_Uml3uSyplb_F6m0WPEB-13" value="" style="edgeStyle=orthogonalEdgeStyle;rounded=0;orthogonalLoop=1;jettySize=auto;html=1;" edge="1" parent="1" source="_Uml3uSyplb_F6m0WPEB-8" target="_Uml3uSyplb_F6m0WPEB-12">
          <mxGeometry relative="1" as="geometry" />
        </mxCell>
        <mxCell id="_Uml3uSyplb_F6m0WPEB-8" value="蓝牙连接成功&lt;br style=&quot;border-color: var(--border-color);&quot;&gt;&lt;font style=&quot;border-color: var(--border-color);&quot;&gt;蓝牙连接超时&lt;/font&gt;" style="rhombus;whiteSpace=wrap;html=1;rounded=1;" vertex="1" parent="1">
          <mxGeometry x="435" y="180" width="110" height="90" as="geometry" />
        </mxCell>
        <mxCell id="_Uml3uSyplb_F6m0WPEB-10" value="DSP休眠判断工作模式连接MQTT" style="whiteSpace=wrap;html=1;rounded=1;" vertex="1" parent="1">
          <mxGeometry x="680" y="195" width="120" height="60" as="geometry" />
        </mxCell>
        <mxCell id="_Uml3uSyplb_F6m0WPEB-14" style="edgeStyle=orthogonalEdgeStyle;rounded=0;orthogonalLoop=1;jettySize=auto;html=1;entryX=0.5;entryY=1;entryDx=0;entryDy=0;" edge="1" parent="1" source="_Uml3uSyplb_F6m0WPEB-12" target="_Uml3uSyplb_F6m0WPEB-10">
          <mxGeometry relative="1" as="geometry" />
        </mxCell>
        <mxCell id="_Uml3uSyplb_F6m0WPEB-12" value="进行WIFI连接绑定" style="rounded=1;whiteSpace=wrap;html=1;" vertex="1" parent="1">
          <mxGeometry x="430" y="365" width="120" height="60" as="geometry" />
        </mxCell>
      </root>
    </mxGraphModel>
  </diagram>
</mxfile>
